<?xml version="1.0" encoding="UTF-8" standalone="no"?>
<svg
   width="54.5254mm"
   height="54.5254mm"
   viewBox="0 0 644 644"
   version="1.1"
   id="svg17"
   sodipodi:docname="icon.svg"
   inkscape:version="1.1.2 (b8e25be833, 2022-02-05)"
   xmlns:inkscape="http://www.inkscape.org/namespaces/inkscape"
   xmlns:sodipodi="http://sodipodi.sourceforge.net/DTD/sodipodi-0.dtd"
   xmlns="http://www.w3.org/2000/svg"
   xmlns:svg="http://www.w3.org/2000/svg">
  <defs
     id="defs21" />
  <sodipodi:namedview
     id="namedview19"
     pagecolor="#505050"
     bordercolor="#ffffff"
     borderopacity="1"
     inkscape:pageshadow="0"
     inkscape:pageopacity="0"
     inkscape:pagecheckerboard="1"
     inkscape:document-units="mm"
     showgrid="false"
     inkscape:zoom="3.881983"
     inkscape:cx="102.91132"
     inkscape:cy="103.04012"
     inkscape:window-width="1920"
     inkscape:window-height="1009"
     inkscape:window-x="-8"
     inkscape:window-y="-8"
     inkscape:window-maximized="1"
     inkscape:current-layer="svg17" />
  <path
     id="Selection"
     fill="none"
     stroke="black"
     stroke-width="1"
     d="M 103.00,1.00            C 109.16,3.91 537.36,397.55 542.00,404.00              542.00,404.00 360.00,415.00 360.00,415.00              360.00,415.00 436.00,589.00 436.00,589.00              436.00,589.00 318.89,641.57 311.00,643.00              311.00,643.00 236.00,470.00 236.00,470.00              236.00,470.00 103.00,596.00 103.00,596.00              103.00,596.00 103.00,1.00 103.00,1.00 Z            M 146.00,96.00            C 146.00,96.00 145.00,497.00 145.00,497.00              151.07,494.13 250.00,398.00 250.00,398.00              250.00,398.00 333.00,588.00 333.00,588.00              333.00,588.00 380.00,568.00 380.00,568.00              380.00,568.00 297.00,377.00 297.00,377.00              297.00,377.00 441.00,368.00 441.00,368.00              441.00,368.00 146.00,96.00 146.00,96.00 Z" />
  <path
     style="fill:#000000;stroke-width:0.2576"
     d="m 87.743523,177.8235 c -6.55759,-15.13255 -12.000231,-27.58723 -12.094762,-27.67708 -0.09453,-0.0899 -8.170361,7.42469 -17.946292,16.69897 -9.775932,9.27429 -19.252403,18.25589 -21.058825,19.95912 l -3.284404,3.0968 V 95.439324 0.97734353 L 35.209382,2.6138743 C 49.349974,15.121838 130.20293,89.278967 160.84897,117.84863 c 5.01731,4.67738 9.77004,9.10767 10.56161,9.84511 1.32595,1.23526 1.38854,1.34285 0.79523,1.36699 -7.39601,0.30099 -57.30419,3.56277 -57.27198,3.74304 0.0242,0.13573 5.44352,12.60639 12.04281,27.71256 6.5993,15.10618 11.99716,27.56759 11.99526,27.69204 -0.002,0.12444 -0.84233,0.59163 -1.8676,1.0382 -1.02528,0.44656 -7.02259,3.09668 -13.32735,5.88915 -11.83728,5.24288 -22.48073,9.79244 -23.51784,10.05274 -0.565759,0.142 -1.134651,-1.10187 -12.515587,-27.36496 z m 26.500507,7.40468 c 4.03694,-1.71991 7.41794,-3.20902 7.51332,-3.30914 0.0954,-0.10011 -5.77451,-13.8606 -13.04421,-30.57886 -7.46176,-17.15993 -13.089302,-30.42092 -12.922931,-30.45214 0.162088,-0.0304 9.974041,-0.63953 21.804331,-1.35359 11.83029,-0.71407 22.08886,-1.38471 22.79682,-1.49031 l 1.28719,-0.192 L 94.327447,74.188888 C 68.284339,50.1741 46.882645,30.491726 46.768128,30.450281 46.457886,30.337995 46.195671,80.573788 46.287413,122.54679 l 0.08064,36.89468 1.159202,-0.91628 c 2.230541,-1.76311 14.932641,-13.74954 27.774756,-26.20986 2.461067,-2.3879 4.561774,-4.24262 4.668243,-4.12161 0.106466,0.12102 6.094223,13.75345 13.306125,30.29429 7.211901,16.54084 13.228471,30.02768 13.370151,29.97076 0.14168,-0.0569 3.56055,-1.51068 7.5975,-3.23059 z"
     id="path177"
     transform="scale(3.1249963)" />
  <path
     style="fill:#000000;stroke-width:0.2576"
     d="m 99.716582,204.48055 c -0.535057,-0.8166 -2.792308,-5.90835 -11.795529,-26.60754 -10.861791,-24.9722 -12.07706,-27.69203 -12.37329,-27.69203 -0.381387,0 -6.235426,5.46726 -32.914912,30.7402 l -9.144811,8.66269 -0.06509,-46.98613 c -0.0358,-25.84237 -0.0358,-68.215803 0,-94.163176 l 0.06509,-47.1770427 7.084008,6.3733059 c 7.39619,6.6541678 8.044171,7.2447198 35.162442,32.0460858 46.51719,42.542897 96.47132,88.713077 96.47132,89.163777 0,0.11939 -0.72451,0.21836 -1.61001,0.21995 -1.56135,0.003 -20.62175,1.1774 -38.41567,2.36737 -4.79998,0.321 -8.45146,0.65802 -8.11441,0.74893 0.33706,0.0909 -0.47761,0.10346 -1.81036,0.0279 -1.6718,-0.0948 -2.37091,-0.0528 -2.25458,0.13544 0.11308,0.18296 -0.48872,0.27378 -1.82722,0.27576 -2.84355,0.004 -3.45748,0.0794 -3.3182,0.4064 0.0669,0.15715 0.55199,1.27104 1.07791,2.47532 6.89811,15.79592 21.13753,48.57546 21.86496,50.33378 0.52136,1.26023 0.84952,2.38974 0.72924,2.51002 -0.43718,0.43717 -35.85486,15.92703 -37.85582,16.55617 -0.42523,0.1337 -0.66183,0.0303 -0.955068,-0.41718 z m 13.044168,-18.47458 c 6.7815,-2.89395 9.45951,-4.11103 9.0842,-4.12852 -0.14169,-0.007 -0.27482,-0.27273 -0.29587,-0.59142 -0.0211,-0.31868 -3.13404,-7.76646 -6.91777,-16.55063 -9.34801,-21.702 -17.59983,-40.96007 -18.178653,-42.42528 l -0.477697,-1.20924 1.085379,-0.13717 c 0.596957,-0.0754 10.599391,-0.72403 22.227621,-1.44131 11.62824,-0.71728 21.46707,-1.39102 21.86408,-1.49719 0.79681,-0.2131 3.95455,2.74476 -57.947141,-54.279052 C 46.433185,29.872073 46.958398,30.347457 46.648159,30.657664 46.305778,31.000007 46.095368,159.45459 46.437188,159.45459 c 0.517793,0 5.497891,-4.56959 17.808256,-16.34032 11.702713,-11.18972 15.561862,-14.83565 15.62808,-14.76461 0.07982,0.0856 2.551959,5.70636 11.698011,26.59692 11.261755,25.72305 14.802275,33.61684 15.077825,33.61684 0.0651,0 2.81524,-1.15085 6.11139,-2.55745 z"
     id="path216"
     transform="scale(3.1249963)" />
  <path
     style="fill:#000000;stroke-width:0.2576"
     d="m 99.72222,204.48305 c -0.599026,-0.92374 -2.619717,-5.47856 -12.319497,-27.76924 -11.251781,-25.85727 -11.553145,-26.53283 -11.836206,-26.53283 -0.336483,0 -7.211194,6.39477 -25.720858,23.92522 L 33.48804,189.59846 33.42295,142.60503 c -0.0358,-25.84638 -0.0358,-68.224763 0,-94.174176 L 33.48804,1.2501007 36.450443,3.9037678 C 63.752457,28.360413 172.20581,128.16698 172.20581,128.83561 c 0,0.12218 -0.6224,0.22214 -1.38311,0.22214 -1.19782,0 -24.2701,1.41891 -38.53402,2.36978 -2.64963,0.17663 -4.47439,0.39328 -4.1216,0.48935 0.34819,0.0948 -0.39951,0.10936 -1.66155,0.0323 -1.6294,-0.0995 -2.24404,-0.0582 -2.12014,0.14224 0.12421,0.20097 -0.50669,0.2382 -2.18936,0.12918 -1.6788,-0.10876 -2.31343,-0.0716 -2.18985,0.1284 0.1197,0.19368 -0.45058,0.28954 -1.82722,0.30715 -3.54116,0.0453 -3.40175,0.0178 -3.16885,0.62562 0.21131,0.55152 2.51484,5.85504 14.94823,34.41602 8.72782,20.04883 8.85562,20.35727 8.55853,20.65436 -0.44261,0.44261 -35.99234,15.9907 -37.84522,16.55205 -0.42161,0.12773 -0.6629,0.0207 -0.94943,-0.42116 z m 13.27963,-18.59949 c 8.44407,-3.61075 8.54016,-3.65708 8.6129,-4.15272 0.0764,-0.52075 -2.45072,-6.55164 -11.76326,-28.07226 -3.86245,-8.92585 -8.5669,-19.8803 -10.454317,-24.34323 l -3.43168,-8.11441 0.961311,-0.18517 c 0.528722,-0.10185 5.945876,-0.48248 12.038126,-0.84586 20.9773,-1.2512 31.42885,-1.95729 32.07124,-2.16668 l 0.644,-0.2099 -1.1592,-1.11727 C 137.9873,114.23406 70.114435,51.64931 53.719931,36.637866 47.807854,31.224539 46.86826,30.45654 46.635922,30.84759 46.3184,31.382013 46.110599,159.45596 46.42726,159.4523 c 0.509542,-0.006 5.701848,-4.77794 18.33746,-16.85329 4.30928,-4.11821 9.467149,-9.03127 11.461931,-10.91791 l 3.626878,-3.43026 0.731127,1.62706 c 0.402119,0.89488 4.360519,9.91535 8.796445,20.04548 12.188129,27.8335 17.007019,38.64004 17.230489,38.64004 0.0677,0 2.94336,-1.20593 6.39026,-2.67986 z"
     id="path255"
     transform="scale(3.1249963)" />
  <path
     style="fill:#000000;stroke-width:0.2576"
     d="m 99.687833,204.43668 c -0.562612,-0.85866 -2.791776,-5.8851 -12.751717,-28.75327 -11.093344,-25.47048 -11.107573,-25.50243 -11.356292,-25.50243 -0.361485,0 -6.639506,5.85948 -31.131785,29.05633 L 33.48804,189.61762 33.42295,142.61461 c -0.0358,-25.85165 -0.0358,-68.242331 0,-94.20151 L 33.48804,1.2145973 40.572048,7.6006001 C 71.849857,35.796525 172.20581,128.18711 172.20581,128.78644 c 0,0.0954 -2.57923,0.31574 -5.73161,0.48974 -4.66896,0.25771 -22.00687,1.35618 -35.69297,2.26138 -1.53641,0.10162 -2.51355,0.26386 -2.3184,0.38494 0.18553,0.11511 -0.69526,0.13668 -1.9573,0.0479 -1.72075,-0.12099 -2.24802,-0.0859 -2.10827,0.14019 0.1398,0.2262 -0.36496,0.25916 -2.02018,0.13193 -1.44967,-0.11143 -2.20654,-0.0787 -2.20654,0.0953 0,0.15526 -1.00861,0.30899 -2.4372,0.37147 -1.34046,0.0586 -2.51621,0.1856 -2.61278,0.28216 -0.0966,0.0966 4.70518,11.39362 10.67054,25.10457 13.17684,30.28603 13.03446,29.94744 12.72434,30.25756 -0.54547,0.54546 -37.58208,16.69625 -38.28747,16.69625 -0.0761,0 -0.319167,-0.27592 -0.540137,-0.61316 z m 13.569547,-18.67491 c 8.59351,-3.68881 8.43493,-3.60853 8.31883,-4.21137 -0.18981,-0.98558 -0.41442,-1.48779 -0.66543,-1.48779 -0.14049,0 -0.18892,-0.10762 -0.10762,-0.23917 0.16402,-0.26539 -2.21906,-5.92818 -13.12492,-31.18806 -4.0678,-9.42173 -8.366047,-19.44883 -9.551668,-22.28243 l -2.155677,-5.15201 0.701011,-0.17827 c 0.385555,-0.098 6.786814,-0.53929 14.225024,-0.98055 19.82706,-1.17621 28.86478,-1.78742 29.88164,-2.02086 l 0.9016,-0.20698 -0.92311,-0.88267 C 135.05593,111.48022 50.330534,33.457161 48.056251,31.564041 l -1.145408,-0.95344 -0.251661,0.60152 c -0.309849,0.740595 -0.525626,128.242469 -0.217031,128.242469 0.451063,0 6.077277,-5.18493 18.308849,-16.87282 9.907401,-9.46703 15.053369,-14.30632 15.129206,-14.22758 0.09529,0.099 2.833457,6.31151 11.94757,27.1076 11.189804,25.53228 13.667804,31.04083 13.963604,31.04083 0.13285,0 0.16991,0.11592 0.0823,0.2576 -0.0876,0.14168 -0.0296,0.2576 0.1288,0.2576 0.1584,0 0.21927,0.11121 0.13527,0.24712 -0.11918,0.19284 0.34772,1.29848 0.54834,1.29848 0.0245,0 2.98152,-1.26074 6.57124,-2.80165 z"
     id="path294"
     transform="scale(3.1249963)" />
  <path
     style="fill:#000000;stroke-width:0.2576"
     d="m 99.887033,204.73366 c -0.643308,-0.80056 -1.070932,-1.76112 -14.882219,-33.42946 -9.537455,-21.86873 -9.205192,-21.12322 -9.414284,-21.12322 -0.10119,0 -1.733078,1.42002 -3.626414,3.1556 -3.586557,3.28772 -4.652388,4.29047 -24.69446,23.23292 -6.729808,6.36058 -12.612755,11.91584 -13.073215,12.34504 l -0.837201,0.78035 V 95.476839 c 0,-92.710159 0.0079,-94.212532 0.492367,-93.873184 3.267519,2.2886591 138.354203,126.465395 138.354203,127.180355 0,0.0931 -3.39067,0.36899 -7.53481,0.61301 -18.80811,1.10746 -35.87803,2.29677 -35.95355,2.50497 -0.0455,0.12541 -1.00184,0.15714 -2.12521,0.0705 -1.46268,-0.11279 -2.04249,-0.0731 -2.04249,0.13978 0,0.21453 -0.60952,0.25043 -2.1896,0.12898 -1.43723,-0.11048 -2.18961,-0.0773 -2.18961,0.0966 0,0.15526 -1.00861,0.30899 -2.4372,0.37147 -1.34046,0.0586 -2.50244,0.17183 -2.58218,0.25156 -0.16308,0.16309 2.06434,5.39358 13.25631,31.12871 9.57787,22.02361 10.37193,23.90813 10.19473,24.19484 -0.24525,0.39682 -35.95238,16.05098 -37.90851,16.61925 -0.3095,0.0899 -0.65657,0.0168 -0.806657,-0.17 z m 13.453717,-19.01233 c 8.47127,-3.63106 8.11779,-3.44126 8.11779,-4.35893 0,-0.41128 -0.18215,-0.92995 -0.4048,-1.15259 -0.22264,-0.22264 -0.34459,-0.4048 -0.271,-0.4048 0.0736,0 0.0126,-0.34776 -0.1356,-0.7728 -0.14817,-0.42504 -0.38082,-0.7728 -0.517,-0.7728 -0.13618,0 -0.18353,-0.10366 -0.10523,-0.23037 0.16975,-0.27466 -1.02138,-3.11533 -11.19101,-26.68886 -10.046202,-23.28741 -12.903528,-30.07056 -12.73702,-30.23707 0.07442,-0.0744 6.18797,-0.50956 13.58568,-0.96699 19.0287,-1.17662 29.77856,-1.89778 30.91893,-2.07423 l 0.98212,-0.15195 -0.85332,-0.90219 C 138.9665,115.14296 53.438802,36.293117 48.045291,31.559435 l -1.156367,-1.014901 -0.191372,1.020952 c -0.105255,0.561525 -0.154119,12.323166 -0.108588,26.136983 0.04553,13.813816 0.0127,19.841663 -0.07297,13.395216 -0.09483,-7.136286 -0.179414,4.812416 -0.216247,30.548075 -0.03327,23.24789 0.01602,45.75919 0.109544,50.02512 l 0.170039,7.75623 0.667162,-0.51882 c 1.20534,-0.93732 9.26562,-8.45684 17.776772,-16.58412 15.721996,-15.01291 14.758774,-14.15404 15.111128,-13.47394 0.169238,0.32666 3.631319,8.18669 7.693516,17.46674 12.097544,27.63674 17.707002,40.18565 17.963282,40.18565 0.13296,0 0.1701,0.11592 0.0825,0.2576 -0.0876,0.14168 -0.0364,0.2576 0.11359,0.2576 0.15004,0 0.24984,0.0869 0.22177,0.1932 -0.0568,0.21505 0.29825,1.3524 0.42219,1.3524 0.0434,0 3.06262,-1.27894 6.70947,-2.84209 z"
     id="path333"
     transform="scale(3.1249963)" />
  <path
     style="fill:#000000;stroke-width:0.2576"
     d="m 99.691679,204.44255 c -0.620682,-0.94729 -2.489833,-5.15328 -12.95229,-29.14554 -10.476759,-24.02505 -10.818074,-24.79217 -11.111553,-24.97354 -0.302073,-0.1867 -4.920315,4.09513 -29.116437,26.99541 L 33.48804,189.64477 33.42295,142.62819 c -0.0358,-25.85912 -0.0358,-68.268376 0,-94.242787 L 33.48804,1.1592014 38.897646,6.0466386 C 75.306109,38.940727 172.20581,128.15462 172.20581,128.78118 c 0,0.10474 -2.46331,0.33115 -5.47401,0.50314 -3.01071,0.17198 -11.67574,0.71292 -19.25562,1.20208 -7.57989,0.48915 -14.18734,0.90102 -14.68322,0.91524 -0.82638,0.0237 -0.84788,0.0429 -0.2576,0.23045 0.36556,0.11613 -0.25884,0.14544 -1.44417,0.0678 -1.43437,-0.094 -2.14572,-0.0437 -2.272,0.16067 -0.12882,0.20843 -0.79522,0.24646 -2.22664,0.12709 -1.50823,-0.12579 -2.0428,-0.0898 -2.0428,0.13771 0,0.2288 -0.5634,0.26236 -2.1896,0.13041 -1.5686,-0.12727 -2.18961,-0.0946 -2.18961,0.11536 0,0.18922 -0.6616,0.30382 -1.8676,0.3235 -1.63978,0.0268 -3.98079,0.37247 -3.076,0.45425 0.18546,0.0168 0.273,0.13436 0.19453,0.26132 -0.18066,0.29233 0.4486,1.79686 8.36102,19.99078 10.13621,23.30737 14.93528,34.4603 14.93528,34.70931 0,0.29005 -2.01237,1.21952 -15.2944,7.06415 -10.87354,4.7848 -21.7071,9.41867 -22.75172,9.73166 -0.42628,0.12772 -0.66723,0.0137 -0.979971,-0.46355 z m 14.811661,-19.23282 c 7.54358,-3.23424 7.04626,-2.94061 6.86564,-4.05365 -0.0824,-0.50764 -0.29879,-1.01752 -0.48091,-1.13308 -0.18212,-0.11555 -0.25022,-0.21187 -0.15133,-0.21404 0.27806,-0.006 -0.32615,-1.54955 -0.6066,-1.54955 -0.13618,0 -0.17596,-0.11592 -0.0884,-0.2576 0.0876,-0.14168 0.0296,-0.2576 -0.1288,-0.2576 -0.1584,0 -0.22147,-0.10766 -0.14014,-0.23924 0.16185,-0.26189 -1.56511,-4.36357 -14.90386,-35.39796 -4.922929,-11.45385 -8.8794,-20.89656 -8.792155,-20.9838 0.08724,-0.0872 6.152605,-0.53305 13.478595,-0.99068 22.16126,-1.38435 30.27894,-1.93501 31.18398,-2.11533 l 0.8624,-0.17183 -2.2792,-2.18995 C 134.77529,111.2862 56.90348,39.519988 49.459259,32.837908 l -2.576003,-2.312272 -0.177466,1.932003 c -0.09761,1.062601 -0.143223,12.828495 -0.101372,26.146431 0.04185,13.317936 -0.0041,21.606226 -0.102152,18.418422 -0.09803,-3.187804 -0.14207,13.852456 -0.09785,37.867248 0.04421,24.01479 0.08992,43.87119 0.101576,44.12535 0.01707,0.37242 0.255693,0.26546 1.229629,-0.55119 1.909027,-1.60072 8.748689,-7.99895 17.66632,-16.52613 4.51911,-4.32125 9.620021,-9.17022 11.335361,-10.77551 l 3.118798,-2.9187 0.859447,1.8883 c 0.4727,1.03856 4.747566,10.75619 9.499705,21.59472 10.803618,24.64055 14.420398,32.75813 14.681128,32.95062 0.11251,0.0831 0.244,0.38286 0.2922,0.66622 0.0482,0.28336 0.25133,0.69849 0.45137,0.92251 0.20004,0.22401 0.28618,0.48483 0.19142,0.5796 -0.0948,0.0948 -0.0516,0.17229 0.096,0.17229 0.14759,0 0.33779,0.34725 0.42267,0.77167 l 0.15433,0.77167 1.23027,-0.48844 c 0.67665,-0.26864 3.72255,-1.55699 6.76868,-2.86299 z"
     id="path372"
     transform="scale(3.1249963)" />
  <path
     style="fill:#ffffff;stroke-width:0.2576"
     d="m 106.6617,187.55758 c -0.0636,-0.10289 -6.03308,-13.73163 -13.265538,-30.28611 -7.232461,-16.55448 -13.202314,-30.15143 -13.266341,-30.21546 -0.06402,-0.064 -4.616702,4.21452 -10.117059,9.50788 -10.230167,9.84516 -17.493792,16.71825 -21.182058,20.04317 l -2.076248,1.87171 0.03724,-36.67093 c 0.02048,-20.16902 0.107421,-48.734559 0.1932,-63.478983 l 0.155963,-26.808045 46.543082,42.908065 46.543079,42.908063 -0.94783,0.18598 c -0.5213,0.10229 -10.74308,0.78293 -22.71505,1.51253 -11.97198,0.72961 -21.800117,1.35501 -21.840318,1.38979 -0.0402,0.0348 5.836258,13.67027 13.058818,30.3011 7.22255,16.63083 13.16737,30.38747 13.21071,30.5703 0.0762,0.32136 -1.53576,1.06815 -10.67503,4.94566 -1.94755,0.82628 -3.59303,1.41816 -3.65662,1.31528 z"
     id="path748"
     transform="scale(3.1249963)" />
</svg>
